# xmcd
#
# Track frame offsets:
#	150
#	15934
#	20783
#	30953
#	48462
#	58754
#	71443
#	91773
#	98757
#	118550
#	129612
#	141402
#	168563
#	183978
#
# Disc length: 2608 seconds
#
# Revision: 0
# Processed by: cddbd v1.5.2PL0 Copyright (c) Steve Scherf et al.
# Submitted via: audiograbber 1.83.01
#
DISCID=b60a2e0e
DTITLE=Der Singkreis Frohe Botschaft - Wie schön leuchtet der Morgenstern
DYEAR=1982
DGENRE=Christmas
TTITLE0=O komm, o komm, Immanuel
TTITLE1=Hosianna dem Sohne Davids
TTITLE2=Machet die Tore weit
TTITLE3=Es wird ein Stern aus Jakob aufgeh'n
TTITLE4=Freue dich, Welt
TTITLE5=Lobt Gott, ihr Christen, allzugleich
TTITLE6=Ich steh an deiner Krippen hier
TTITLE7=Psallite
TTITLE8=Heilige Nacht
TTITLE9=Mit den Hirten will ich gehen
TTITLE10=Was bedeutet dir die Weihnacht
TTITLE11=Der Heiland ist geboren
TTITLE12=Herbei, o ihr Gläub'gen
TTITLE13=O du fröhliche
EXTD=
EXTT0=
EXTT1=
EXTT2=
EXTT3=
EXTT4=
EXTT5=
EXTT6=
EXTT7=
EXTT8=
EXTT9=
EXTT10=
EXTT11=
EXTT12=
EXTT13=
PLAYORDER=
